<?xml version="1.0" encoding="utf-8"?>
<!-- Uploaded to: SVG Repo, www.svgrepo.com, Generator: SVG Repo Mixer Tools -->
<svg fill="#000000" version="1.1" id="Layer_1" xmlns="http://www.w3.org/2000/svg" xmlns:xlink="http://www.w3.org/1999/xlink" 
	 width="800px" height="800px" viewBox="0 0 48 260" enable-background="new 0 0 48 260" xml:space="preserve">
<path d="M10.802,171.214l-1.283,8.281l-3.414-0.702l1.743-10.243L10.802,171.214z M27.075,246.837l1.477,7.385l-2.93-0.92
	l-3.196,2.567L32.862,258l1.695-1.017l0.121-14.795l-3.293-1.308L27.075,246.837z M45.648,39.775l-5.4-1.429L38.19,27.764
	l-2.058-2.422l-1.55-5.739l1.84-4.843l-3.221-2.954l-0.993-6.247L29.787,2l-5.134,6.417l1.235,10.606l-0.508,3.608l0.969,6.272
	l-1.356,9.71l-1.84,1.647l0.145,11.09l0.872,4.165l-2.664,15.594l-3.535,9.056l1.55,6.611l-2.252,3.003l1.09,12.64l0.775,1.187
	l-2.373,10.751l-7.047,22.738l-2.083,1.114l2.954,13.73l-3.124,11.042l1.283,5.279l4.504,0.872l0.533,6.344l-1.768,9.25l2.93,3.874
	l-3.39,3.656l-0.678,4.916l-5.012,0.387l-3.511,4.189l7.579,2.93l-2.785,5.061l3.027,6.49l-3.823,1.635l-0.218,5.957l3.24,0.044
	l0.994,7.474l1.768,1.913l2.204,9.613l6.368,6.901l4.407,0.169l0.508-6.925l6.514-3.826l-3.027-1.308l-8.33,0.097l-1.961-2.712
	l-0.073-6.417l-3.778,0.896l-2.3-8.257l1.768-2.01l3.487-6.804l-1.114-2.494l2.954-5.255l0.702-3.293l-0.751-6.49l2.252-3.099
	l-2.688-6.054l0.291-2.47l-2.252-7.095l2.906-27.92l2.857-1.743l-1.816-6.708l0.678-8.378l3.535-3.051l-0.073-6.974l3.221-11.284
	l-1.865-2.228l-2.93-10.219l2.107-7.095l1.84-1.404l-0.194-4.068l1.598-9.032l2.906-3.245l4.625-11.89l-0.92-9.638l7.603-4.988
	L45.648,39.775z"/>
</svg>