<?xml version="1.0" encoding="iso-8859-1"?>
<!-- Uploaded to: SVG Repo, www.svgrepo.com, Generator: SVG Repo Mixer Tools -->
<svg fill="#000000" height="800px" width="800px" version="1.1" id="Layer_1" xmlns="http://www.w3.org/2000/svg" xmlns:xlink="http://www.w3.org/1999/xlink" 
	 viewBox="0 0 512.597 512.597" xml:space="preserve">
<g>
	<g>
		<g>
			<path d="M435.295,47.125C422.154,28.757,284.405,0.469,278.005,0.021C277.791,0,277.578,0,277.343,0
				c-17.301,0-57.024,41.792-68.928,54.72c-28.757,31.296-27.648,38.571-26.987,42.901c0.896,5.803,4.032,11.499,7.317,17.515
				c2.56,4.651,7.872,14.315,6.059,16.299c-3.179,3.435-16.725,14.379-29.803,24.981c-49.707,40.171-66.624,55.211-68.8,65.323
				c-2.88,13.44,11.328,23.232,26.368,33.579c4.693,3.221,12.011,8.277,15.168,11.456c-2.688,4.608-9.067,13.483-14.379,20.885
				c-30.592,42.581-57.28,83.093-48.192,110.357c2.325,6.912,8.427,12.672,18.176,17.152c13.077,5.995,33.707,9.941,56.341,11.221
				l-27.499,37.248c-6.272,10.005-6.592,22.144-0.875,32.469s16.171,16.491,28.032,16.491l190.805-0.64
				c8.725,0,17.195-3.627,23.211-9.963s9.173-14.976,8.725-23.936l-9.451-126.08v-6.123c8.043-8.32,14.677-19.627,20.331-32.405
				c0.192-0.448,0.405-0.875,0.533-1.344c15.296-35.371,22.784-82.219,27.819-114.176c1.728-10.923,3.051-19.648,4.331-24.683
				c1.024-4.075,2.517-9.643,4.267-16.171C439.647,83.904,443.253,58.24,435.295,47.125z M399.327,151.531
				c-1.792,6.656-3.328,12.373-4.373,16.533c-1.365,5.397-2.859,14.763-4.693,26.539c-4.352,27.733-11.477,71.744-24.427,104.363
				c-16.299,0-33.749-5.056-35.435-13.12c-2.731-13.355,5.12-51.221,21.056-101.291c1.792-5.611-1.301-11.605-6.933-13.397
				c-5.568-1.771-11.627,1.323-13.397,6.933c-18.005,56.576-25.28,94.272-21.611,112.043c4.011,19.413,25.792,27.648,46.187,29.653
				c-3.328,5.312-6.848,10.048-10.795,13.525c-2.283,2.027-3.605,4.928-3.605,8l9.515,138.133c0.149,2.965-0.896,5.76-2.923,7.893
				c-2.027,2.133-4.757,3.328-7.765,3.328l-190.805,0.64c-5.675,0-8.427-3.84-9.344-5.504c-0.917-1.664-2.709-6.037-0.171-10.155
				l36.203-48.981c22.805-0.832,45.461-4.459,62.699-11.499c5.419-2.219,8.043-8.469,5.824-13.909
				c-2.219-5.44-8.427-8.043-13.909-5.824c-16.235,6.656-37.525,9.536-58.411,9.984c-1.109-0.128-2.24-0.128-3.371,0.064
				c-35.712,0-69.397-6.549-73.365-14.208c-4.928-14.741,14.549-46.805,31.445-71.509c0.363,0.043,0.683,0.213,1.045,0.213h32
				c5.888,0,10.667-4.779,10.667-10.667s-4.779-10.667-10.667-10.667h-18.155c12.971-18.091,17.728-25.109,18.176-31.147
				c0.917-11.691-11.221-20.053-25.259-29.717c-5.12-3.541-13.163-9.067-16.448-12.587c8.213-10.197,41.6-37.184,60.181-52.203
				c17.771-14.379,28.032-22.72,32.064-27.115c12.224-13.248,3.051-29.952-3.029-41.024c-1.685-3.072-3.712-6.72-4.565-9.109
				c6.912-15.211,62.848-70.912,73.685-74.475c13.163,0.875,129.92,28.715,140.907,37.44
				C421.386,69.696,404.789,131.285,399.327,151.531z"/>
			<path d="M311.391,160.192l-44.757-8.96v-12.587c0-5.888-4.779-10.667-10.667-10.667c-5.888,0-10.667,4.779-10.667,10.667v21.333
				c0,5.077,3.584,9.451,8.576,10.453l53.333,10.667c0.704,0.149,1.408,0.213,2.112,0.213c4.971,0,9.408-3.499,10.453-8.576
				C320.927,166.955,317.173,161.344,311.391,160.192z"/>
		</g>
	</g>
</g>
</svg>